P3
155 23
255
204 200 191 203 199 190 202 198 189 202 198 189 203 199 190 202 198 189 200 196 187 199 195 186 203 199 190 204 200 191 203 199 190 200 196 187 200 196 187 203 199 190 204 200 191 203 199 190 209 202 194 210 203 195 210 203 195 206 199 191 200 193 185 197 190 182 200 193 185 204 197 189 205 198 190 207 200 192 209 202 194 210 203 195 209 202 194 207 200 192 204 197 189 202 195 187 204 200 191 201 197 188 199 195 186 202 198 189 208 204 195 210 206 197 206 202 193 202 198 189 203 199 190 202 198 189 202 198 189 201 197 188 201 197 188 200 196 187 200 196 187 200 196 187 205 198 190 204 197 189 203 196 188 203 196 188 204 197 189 206 199 191 208 201 193 210 203 195 210 203 195 204 197 189 200 193 185 201 194 186 201 194 186 200 193 185 203 196 188 207 200 192 212 205 197 210 203 195 208 201 193 206 199 191 204 197 189 202 195 187 201 194 186 201 194 186 205 198 190 206 199 191 207 200 192 209 202 194 209 202 194 207 200 192 206 199 191 205 198 190 202 198 189 202 198 189 201 197 188 200 196 187 199 195 186 200 196 187 202 198 189 203 199 190 204 200 191 204 200 191 204 200 191 205 201 192 206 202 193 207 203 194 208 204 195 209 205 196 203 196 188 204 197 189 203 196 188 199 192 184 201 194 186 207 200 192 211 204 196 211 204 196 207 200 192 206 199 191 205 198 190 204 197 189 203 196 188 203 196 188 203 196 188 203 196 188 209 202 194 210 203 195 210 203 195 208 201 193 204 197 189 202 195 187 202 195 187 203 196 188 203 196 188 202 195 187 202 195 187 202 195 187 203 196 188 204 197 189 205 198 190 206 199 191 203 196 188 203 196 188 203 196 188 205 198 190 208 201 193 211 204 196 208 201 193 202 195 187 198 191 183 198 191 183 199 192 184 202 195 187 206 199 191 210 203 195 210 203 195 210 203 195 206 199 189 204 197 187 203 196 186 203 196 186 205 198 188 205 198 188 203 196 186 201 194 184 203 196 186 203 196 186 204 197 187 
184 180 171 183 179 170 182 178 169 183 179 170 184 180 171 184 180 171 184 180 171 183 179 170 178 174 165 180 176 167 181 177 168 181 177 168 183 179 170 186 182 173 186 182 173 185 181 172 195 188 180 196 189 181 199 192 184 199 192 184 197 190 182 193 186 178 188 181 173 185 178 170 189 182 174 188 181 173 188 181 173 187 180 172 186 179 171 185 178 170 184 177 169 183 176 168 181 177 168 189 185 176 199 195 186 201 197 188 196 192 183 188 184 175 184 180 171 183 179 170 181 177 168 181 177 168 182 178 169 183 179 170 183 179 170 183 179 170 182 178 169 182 178 169 182 175 167 183 176 168 185 178 170 187 180 172 188 181 173 190 183 175 191 184 176 191 184 176 201 194 186 202 195 187 202 195 187 199 192 184 190 183 175 182 175 167 182 175 167 186 179 171 192 185 177 191 184 176 190 183 175 189 182 174 188 181 173 189 182 174 189 182 174 189 182 174 198 191 183 198 191 183 196 189 181 194 187 179 191 184 176 187 180 172 184 177 169 182 175 167 183 179 170 183 179 170 183 179 170 182 178 169 181 177 168 182 178 169 183 179 170 185 181 172 181 177 168 182 178 169 184 180 171 186 182 173 188 184 175 190 186 177 192 188 179 193 189 180 192 185 177 194 187 179 193 186 178 189 182 174 189 182 174 192 185 177 192 185 177 190 183 175 194 187 179 192 185 177 188 181 173 185 178 170 185 178 170 188 181 173 192 185 177 194 187 179 196 189 181 196 189 181 195 188 180 193 186 178 190 183 175 187 180 172 186 179 171 186 179 171 186 179 171 186 179 171 185 178 170 184 177 169 183 176 168 183 176 168 185 178 170 186 179 171 189 182 174 191 184 176 192 185 177 193 186 178 197 190 182 200 193 185 199 192 184 196 189 181 194 187 179 193 186 178 191 184 176 191 184 176 192 185 177 192 185 177 190 183 175 188 181 171 188 181 171 187 180 170 186 179 169 186 179 169 186 179 169 185 178 168 184 177 167 183 176 166 184 177 167 185 178 168 185 178 168 
155 151 140 153 149 138 152 148 137 152 148 137 153 149 138 154 150 139 153 149 138 153 149 138 154 150 139 156 152 141 156 152 141 153 149 138 151 147 136 150 146 135 147 143 132 144 140 129 143 136 126 141 134 124 140 133 123 143 136 126 150 143 133 154 147 137 155 148 138 153 146 136 158 151 141 156 149 139 154 147 137 152 145 135 152 145 135 153 146 136 155 148 138 156 149 139 153 146 136 148 141 131 141 134 124 137 130 120 138 131 121 142 135 125 148 141 131 152 145 135 154 147 137 154 147 137 155 148 138 156 149 139 156 149 139 155 148 138 154 147 137 153 146 136 154 147 137 154 147 137 155 148 138 154 147 137 152 145 135 148 141 131 145 138 128 142 135 125 135 128 118 134 127 117 136 129 119 145 138 128 154 147 137 158 151 141 158 151 141 157 150 140 154 147 137 153 146 136 151 144 134 150 143 133 149 142 132 150 143 133 151 144 134 151 144 134 135 128 118 137 130 120 140 133 123 143 136 126 147 140 130 151 144 134 153 146 136 155 148 138 151 147 136 152 148 137 153 149 138 153 149 138 152 148 137 151 147 136 152 148 137 153 149 138 155 151 140 154 150 139 152 148 137 149 145 134 146 142 131 143 139 128 140 136 125 139 135 124 149 142 132 151 144 134 153 146 136 153 146 136 153 146 136 154 147 137 153 146 136 151 144 134 150 143 133 152 145 135 153 146 136 154 147 137 153 146 136 151 144 134 148 141 131 147 140 130 138 131 121 139 132 122 141 134 124 145 138 128 149 142 132 153 146 136 155 148 138 156 149 139 155 148 138 155 148 138 156 149 139 154 147 137 152 145 135 152 145 135 154 147 137 156 149 139 145 138 128 147 140 130 146 139 129 143 136 126 142 135 125 143 136 126 142 135 125 139 132 122 155 148 138 154 147 137 153 146 136 153 146 136 153 146 136 153 146 136 152 145 135 150 143 133 154 147 137 155 149 137 155 149 137 155 149 137 154 148 136 154 148 136 154 148 136 155 149 137 154 148 136 154 148 136 155 149 137 
204 200 189 202 198 187 200 196 185 199 195 184 199 195 184 199 195 184 198 194 183 197 193 182 195 191 180 197 193 182 199 195 184 198 194 183 199 195 184 201 197 186 201 197 186 199 195 184 207 200 190 202 195 185 197 190 180 196 189 179 199 192 182 202 195 185 203 196 186 202 195 185 200 193 183 199 192 182 197 190 180 197 190 180 198 191 181 201 194 184 204 197 187 206 199 189 201 194 184 200 193 183 199 192 182 201 194 184 204 197 187 205 198 188 203 196 186 200 193 183 205 198 188 205 198 188 204 197 187 202 195 185 201 194 184 200 193 183 199 192 182 199 192 182 197 190 180 199 192 182 201 194 184 204 197 187 205 198 188 205 198 188 203 196 186 202 195 185 213 206 196 206 199 189 199 192 182 199 192 182 203 196 186 203 196 186 197 190 180 192 185 175 199 192 182 199 192 182 198 191 181 198 191 181 199 192 182 200 193 183 202 195 185 203 196 186 202 195 185 202 195 185 202 195 185 203 196 186 204 197 187 205 198 188 207 200 190 208 201 191 197 193 182 198 194 183 199 195 184 199 195 184 198 194 183 197 193 182 197 193 182 198 194 183 199 195 184 200 196 185 201 197 186 201 197 186 202 198 187 202 198 187 202 198 187 201 197 186 194 187 177 196 189 179 198 191 181 199 192 182 200 193 183 200 193 183 199 192 182 198 191 181 195 188 178 198 191 181 203 196 186 206 199 189 206 199 189 204 197 187 200 193 183 197 190 180 207 200 190 205 198 188 204 197 187 204 197 187 205 198 188 206 199 189 204 197 187 202 195 185 197 190 180 199 192 182 200 193 183 200 193 183 198 191 181 199 192 182 201 194 184 204 197 187 212 205 195 213 206 196 211 204 194 205 198 188 202 195 185 201 194 184 200 193 183 198 191 181 197 190 180 197 190 180 197 190 180 198 191 181 199 192 182 200 193 183 200 193 183 200 193 183 197 191 179 200 194 182 202 196 184 203 197 185 202 196 184 203 197 185 205 199 187 207 201 189 196 190 178 196 190 178 197 191 179 
179 173 161 178 172 160 176 170 158 175 169 157 175 169 157 175 169 157 174 168 156 173 167 155 175 169 157 177 171 159 176 170 158 175 169 157 175 169 157 178 172 160 179 173 161 178 172 160 173 167 155 174 168 156 175 169 157 176 170 158 176 170 158 174 168 156 171 165 153 168 162 150 172 166 154 172 166 154 173 167 155 173 167 155 175 169 157 176 170 158 178 172 160 178 172 160 177 169 158 187 179 168 198 190 179 200 192 181 192 184 173 184 176 165 180 172 161 180 172 161 183 175 164 181 173 162 179 171 160 177 169 158 175 167 156 175 167 156 176 168 157 177 169 158 174 168 156 174 168 156 176 170 158 177 171 159 179 173 161 180 174 162 180 174 162 180 174 162 169 163 151 175 169 157 179 173 161 176 170 158 171 165 153 170 164 152 174 168 156 179 173 161 171 165 153 172 166 154 173 167 155 175 169 157 178 172 160 181 175 163 183 177 165 185 179 167 199 193 181 197 191 179 193 187 175 188 182 170 184 178 166 181 175 163 180 174 162 179 173 161 174 168 156 175 169 157 176 170 158 176 170 158 175 169 157 174 168 156 175 169 157 175 169 157 192 186 174 191 185 173 189 183 171 185 179 167 181 175 163 177 171 159 174 168 156 172 166 154 178 172 160 177 171 159 177 171 159 176 170 158 175 169 157 173 167 155 172 166 154 172 166 154 178 172 160 176 170 158 175 169 157 176 170 158 179 173 161 183 177 165 188 182 170 191 185 173 195 189 177 192 186 174 188 182 170 185 179 167 184 178 166 181 175 163 177 171 159 174 168 156 173 167 155 174 168 156 175 169 157 175 169 157 174 168 156 174 168 156 177 171 159 179 173 161 179 173 161 180 174 162 180 174 162 177 171 159 176 170 158 178 172 160 180 174 162 179 173 161 176 170 158 176 170 158 176 170 158 175 169 157 174 168 156 173 167 155 173 167 155 173 167 155 174 168 156 177 171 159 179 173 161 179 173 161 179 173 161 179 173 161 181 175 163 184 178 166 198 192 180 199 193 181 199 193 181 
136 130 118 136 130 118 136 130 118 137 131 119 138 132 120 138 132 120 137 131 119 136 130 118 147 141 129 147 141 129 143 137 125 138 132 120 135 129 117 134 128 116 134 128 116 132 126 114 134 128 116 136 130 118 138 132 120 139 133 121 139 133 121 141 135 123 143 137 125 146 140 128 135 129 117 136 130 118 137 131 119 138 132 120 138 132 120 137 131 119 136 130 118 135 129 117 140 132 121 139 131 120 137 129 118 134 126 115 131 123 112 133 125 114 137 129 118 141 133 122 141 133 122 140 132 121 138 130 119 137 129 118 137 129 118 138 130 119 140 132 121 141 133 122 141 135 123 140 134 122 138 132 120 135 129 117 133 127 115 131 125 113 130 124 112 130 124 112 137 131 119 143 137 125 147 141 129 144 138 126 140 134 122 137 131 119 137 131 119 137 131 119 134 128 116 134 128 116 135 129 117 135 129 117 136 130 118 136 130 118 135 129 117 135 129 117 134 128 116 133 127 115 133 127 115 132 126 114 132 126 114 133 127 115 134 128 116 135 129 117 138 132 120 139 133 121 139 133 121 139 133 121 138 132 120 138 132 120 138 132 120 139 133 121 128 122 110 128 122 110 130 124 112 132 126 114 135 129 117 138 132 120 140 134 122 142 136 124 138 132 120 136 130 118 135 129 117 136 130 118 136 130 118 134 128 116 135 129 117 136 130 118 137 131 119 136 130 118 134 128 116 133 127 115 134 128 116 136 130 118 139 133 121 140 134 122 130 124 112 130 124 112 130 124 112 131 125 113 133 127 115 134 128 116 134 128 116 134 128 116 140 134 122 140 134 122 138 132 120 138 132 120 138 132 120 138 132 120 138 132 120 139 133 121 134 128 116 136 130 118 136 130 118 134 128 116 136 130 118 139 133 121 141 135 123 140 134 122 136 130 118 137 131 119 137 131 119 136 130 118 135 129 117 134 128 116 134 128 116 135 129 117 138 132 120 138 132 120 139 133 121 138 132 120 137 131 119 136 130 118 136 130 118 137 131 119 131 125 113 131 125 113 131 125 113 
167 159 148 167 159 148 169 161 150 171 163 152 172 164 153 172 164 153 171 163 152 169 161 150 170 162 151 171 163 152 171 163 152 169 161 150 169 161 150 172 164 153 172 164 153 170 162 151 175 169 157 172 166 154 168 162 150 164 158 146 162 156 144 163 157 145 167 161 149 171 165 153 168 162 150 169 163 151 170 164 152 171 165 153 171 165 153 169 163 151 167 161 149 165 159 147 171 163 152 167 157 147 164 154 144 167 157 147 174 164 154 178 168 158 174 164 154 170 160 150 171 161 151 171 161 151 171 161 151 171 161 151 171 161 151 172 162 152 172 162 152 171 163 152 170 164 152 170 164 152 170 164 152 170 164 152 171 165 153 172 166 154 173 167 155 173 167 155 166 160 148 165 159 147 165 159 147 166 160 148 172 166 154 176 170 158 172 166 154 164 158 146 173 167 155 174 168 156 174 168 156 173 167 155 171 165 153 168 162 150 165 159 147 163 157 145 166 160 148 166 160 148 166 160 148 166 160 148 166 160 148 167 161 149 167 161 149 168 162 150 172 164 153 172 164 153 172 164 153 171 163 152 171 163 152 171 163 152 172 164 153 174 166 155 171 163 152 170 162 151 168 160 149 166 158 147 165 157 146 165 157 146 166 158 147 166 158 147 170 164 152 168 162 150 169 163 151 172 166 154 173 167 155 172 166 154 173 167 155 176 170 158 171 165 153 172 166 154 173 167 155 173 167 155 171 165 153 167 161 149 164 158 146 162 156 144 168 162 150 169 163 151 169 163 151 169 163 151 168 162 150 168 162 150 168 162 150 169 163 151 174 168 156 172 166 154 169 163 151 169 163 151 171 165 153 172 166 154 171 165 153 170 164 152 169 163 151 169 163 151 168 162 150 167 161 149 168 162 150 171 165 153 170 164 152 167 161 149 168 162 150 170 164 152 172 166 154 172 166 154 171 165 153 172 166 154 173 167 155 175 169 157 170 164 152 169 163 151 167 161 149 166 160 148 166 160 148 164 158 146 163 157 145 162 156 144 165 159 147 166 160 148 166 160 148 
184 176 165 184 176 165 186 178 167 188 180 169 189 181 170 188 180 169 185 177 166 183 175 164 186 178 167 188 180 169 189 181 170 186 178 167 185 177 166 185 177 166 182 174 163 179 171 160 181 175 163 182 176 164 183 177 165 185 179 167 186 180 168 187 181 169 187 181 169 186 180 168 182 176 164 183 177 165 185 179 167 187 181 169 187 181 169 186 180 168 184 178 166 183 177 165 183 173 163 185 175 165 186 176 166 186 176 166 184 174 164 183 173 163 183 173 163 184 174 164 185 175 165 186 176 166 188 178 168 189 179 169 188 178 168 186 176 166 184 174 164 181 173 162 187 179 168 186 180 168 186 180 168 185 179 167 184 178 166 182 176 164 180 174 162 179 173 161 185 179 167 188 182 170 186 180 168 182 176 164 181 175 163 184 178 166 186 180 168 185 179 167 181 175 163 183 177 165 185 179 167 187 181 169 187 181 169 185 179 167 182 176 164 180 174 162 182 176 164 183 177 165 183 177 165 183 177 165 183 177 165 183 177 165 183 177 165 183 177 165 187 179 168 187 179 168 187 179 168 185 177 166 184 176 165 185 177 166 187 179 168 189 181 170 189 181 170 188 180 169 185 177 166 184 176 165 183 175 164 185 177 166 186 178 167 188 180 169 184 178 166 182 176 164 183 177 165 186 180 168 185 179 167 182 176 164 180 174 162 182 176 164 188 182 170 187 181 169 185 179 167 183 177 165 182 176 164 183 177 165 185 179 167 186 180 168 181 175 163 183 177 165 184 178 166 184 178 166 183 177 165 182 176 164 184 178 166 185 179 167 187 181 169 184 178 166 181 175 163 182 176 164 187 181 169 189 183 171 188 182 170 186 180 168 184 178 166 184 178 166 182 176 164 182 176 164 185 179 167 188 182 170 186 180 168 182 176 164 182 176 164 184 178 166 185 179 167 184 178 166 183 177 165 182 176 164 183 177 165 185 179 167 188 182 170 186 180 168 183 177 165 183 177 165 184 178 166 183 177 165 181 175 163 179 173 161 183 177 165 183 177 165 184 178 166 
198 190 179 202 194 183 205 197 186 204 196 185 203 195 184 202 194 183 202 194 183 202 194 183 204 196 185 203 195 184 202 194 183 204 196 185 203 195 184 200 192 181 199 191 180 201 193 182 203 197 185 203 197 185 202 196 184 200 194 182 199 193 181 201 195 183 203 197 185 206 200 188 205 199 187 203 197 185 201 195 183 202 196 184 204 198 186 205 199 187 203 197 185 202 196 184 203 193 183 199 189 179 195 185 175 194 184 174 198 188 178 201 191 181 202 192 182 202 192 182 203 193 183 205 195 185 206 196 186 205 195 185 203 193 183 202 192 182 203 193 183 203 195 184 204 196 185 204 198 186 205 199 187 205 199 187 204 198 186 203 197 185 203 197 185 203 197 185 201 195 183 201 195 183 200 194 182 201 195 183 202 196 184 202 196 184 203 197 185 202 196 184 202 196 184 203 197 185 204 198 186 204 198 186 203 197 185 201 195 183 199 193 181 197 191 179 195 189 177 197 191 179 199 193 181 201 195 183 200 194 182 201 195 183 203 197 185 205 199 187 200 192 181 201 193 182 203 195 184 204 196 185 204 196 185 204 196 185 203 195 184 203 195 184 202 194 183 202 194 183 202 194 183 202 194 183 202 194 183 202 194 183 203 195 184 203 195 184 202 196 184 200 194 182 200 194 182 202 196 184 202 196 184 201 195 183 201 195 183 203 197 185 204 198 186 204 198 186 203 197 185 203 197 185 201 195 183 200 194 182 198 192 180 197 191 179 197 191 179 200 194 182 202 196 184 203 197 185 202 196 184 201 195 183 201 195 183 202 196 184 204 198 186 202 196 184 199 193 181 200 194 182 202 196 184 204 198 186 204 198 186 204 198 186 201 195 183 199 193 181 197 191 179 198 192 180 200 194 182 203 197 185 203 197 185 203 197 185 197 191 179 201 195 183 204 198 186 204 198 186 201 195 183 200 194 182 202 196 184 205 199 187 203 196 186 202 195 185 200 193 183 201 194 184 201 194 184 201 194 184 198 191 181 196 189 179 197 190 180 198 191 181 198 191 181 
211 203 192 211 203 192 212 204 193 211 203 192 211 203 192 212 204 193 212 204 193 212 204 193 214 206 195 213 205 194 213 205 194 215 207 196 214 206 195 212 204 193 211 203 192 212 204 193 211 205 193 212 206 194 212 206 194 211 205 193 209 203 191 208 202 190 208 202 190 208 202 190 211 205 193 211 205 193 211 205 193 211 205 193 210 204 192 209 203 191 209 203 191 209 203 191 206 198 187 205 195 185 205 195 185 207 197 187 210 200 190 212 202 192 210 200 190 208 198 188 209 199 189 209 199 189 209 199 189 209 199 189 210 200 190 210 200 190 210 200 190 209 201 190 211 205 193 212 206 194 212 206 194 211 205 193 208 202 190 206 200 188 205 199 187 205 199 187 208 202 190 207 201 189 207 201 189 206 200 188 207 201 189 208 202 190 208 202 190 208 202 190 204 198 186 204 198 186 204 198 186 204 198 186 204 198 186 205 199 187 205 199 187 205 199 187 207 201 189 208 202 190 209 203 191 207 201 189 204 198 186 202 196 184 201 195 183 201 195 183 207 199 188 207 199 188 208 200 189 208 200 189 208 200 189 209 201 190 209 201 190 209 201 190 209 201 190 210 202 191 210 202 191 211 203 192 211 203 192 211 203 192 210 202 191 210 202 191 208 202 190 207 201 189 209 203 191 212 206 194 212 206 194 208 202 190 206 200 188 207 201 189 207 201 189 207 201 189 207 201 189 207 201 189 207 201 189 206 200 188 206 200 188 206 200 188 211 205 193 210 204 192 208 202 190 206 200 188 206 200 188 207 201 189 209 203 191 212 206 194 212 206 194 211 205 193 209 203 191 209 203 191 209 203 191 210 204 192 210 204 192 209 203 191 214 208 196 211 205 193 209 203 191 208 202 190 209 203 191 209 203 191 209 203 191 208 202 190 204 198 186 208 202 190 211 205 193 212 206 194 210 204 192 210 204 192 212 206 194 215 209 197 213 206 196 213 206 196 213 206 196 214 207 197 215 208 198 216 209 199 214 207 197 213 206 196 209 202 192 210 203 193 209 202 192 
207 200 190 206 199 189 204 197 187 204 197 187 205 198 188 206 199 189 207 200 190 207 200 190 204 197 187 203 196 186 204 197 187 207 200 190 207 200 190 204 197 187 203 196 186 204 197 187 202 195 185 204 197 187 206 199 189 206 199 189 204 197 187 202 195 185 200 193 183 199 192 182 205 198 188 207 200 190 208 201 191 206 199 189 203 196 186 201 194 184 202 195 185 204 197 187 209 200 191 207 198 189 206 197 188 207 198 189 208 199 190 208 199 190 205 196 187 202 193 184 206 197 188 204 195 186 202 193 184 204 195 186 207 198 189 209 200 191 207 198 189 205 196 187 204 197 187 205 198 188 206 199 189 206 199 189 205 198 188 205 198 188 205 198 188 206 199 189 208 201 191 207 200 190 206 199 189 205 198 188 205 198 188 206 199 189 207 200 190 208 201 191 206 199 189 205 198 188 203 196 186 202 195 185 203 196 186 204 197 187 207 200 190 208 201 191 209 202 192 210 203 193 210 203 193 209 202 192 205 198 188 202 195 185 199 192 182 198 191 181 202 195 185 202 195 185 202 195 185 202 195 185 202 195 185 203 196 186 204 197 187 204 197 187 204 197 187 205 198 188 207 200 190 208 201 191 208 201 191 207 200 190 205 198 188 204 197 187 206 199 189 205 198 188 205 198 188 207 200 190 206 199 189 203 196 186 202 195 185 203 196 186 208 201 191 207 200 190 207 200 190 207 200 190 208 201 191 209 202 192 211 204 194 211 204 194 210 203 193 207 200 190 203 196 186 201 194 184 201 194 184 203 196 186 205 198 188 205 198 188 199 192 182 200 193 183 202 195 185 203 196 186 203 196 186 203 196 186 204 197 187 205 198 188 204 197 187 203 196 186 202 195 185 202 195 185 203 196 186 204 197 187 204 197 187 204 197 187 202 195 185 204 197 187 206 199 189 207 200 190 205 198 188 205 198 188 207 200 190 208 201 191 206 199 191 206 199 191 207 200 192 209 202 194 211 204 196 212 205 197 212 205 197 211 204 196 211 204 196 213 206 198 215 208 200 
211 204 196 210 203 193 209 202 194 210 203 193 209 202 194 208 201 191 210 203 195 213 206 196 205 198 190 204 197 187 206 199 191 209 202 192 209 202 194 207 200 190 205 198 190 206 199 189 203 196 188 205 198 188 208 201 193 209 202 192 208 201 193 206 199 189 204 197 189 204 197 187 207 200 192 208 201 191 209 202 194 208 201 191 206 199 191 205 198 188 205 198 190 206 199 189 209 200 193 206 197 188 203 194 187 202 193 184 203 194 187 203 194 185 203 194 187 203 194 185 202 193 186 201 192 183 201 192 185 202 193 184 204 195 188 205 196 187 204 195 188 203 194 185 198 191 183 200 193 183 201 194 186 202 195 185 202 195 187 203 196 186 204 197 189 205 198 188 203 196 188 203 196 186 202 195 187 201 194 184 200 193 185 201 194 184 204 197 189 205 198 188 209 202 194 207 200 190 204 197 189 201 194 184 200 193 185 201 194 184 202 195 187 204 197 187 202 195 187 203 196 186 206 199 191 207 200 190 206 199 191 204 197 187 202 195 187 201 194 184 203 196 188 203 196 186 204 197 189 204 197 187 205 198 190 205 198 188 205 198 190 205 198 188 206 199 191 206 199 189 206 199 191 206 199 189 206 199 191 206 199 189 205 198 190 205 198 188 212 205 197 208 201 191 204 197 189 203 196 186 202 195 187 202 195 185 205 198 190 209 202 192 205 198 190 205 198 188 203 196 188 203 196 186 203 196 188 205 198 188 207 200 192 208 201 191 210 203 195 209 202 192 207 200 192 207 200 190 208 201 193 208 201 191 206 199 191 204 197 187 200 193 185 203 196 186 206 199 191 206 199 189 205 198 190 204 197 187 205 198 190 206 199 189 200 193 185 200 193 183 201 194 186 201 194 184 203 196 188 204 197 187 204 197 189 204 197 187 205 198 190 205 198 188 205 198 190 204 197 187 203 196 188 202 195 185 202 195 187 202 195 187 202 195 187 202 195 187 203 196 188 204 197 189 206 199 191 207 200 192 207 200 192 207 200 192 207 200 192 209 202 194 213 206 198 
200 195 189 200 196 187 202 197 191 204 200 191 201 196 190 198 194 185 200 195 189 205 201 192 208 203 197 207 203 194 208 203 197 211 207 198 212 207 201 210 206 197 209 204 198 210 206 197 209 202 196 211 204 196 212 205 199 212 205 197 211 204 198 210 203 195 209 202 196 209 202 194 210 203 197 209 202 194 207 200 194 208 201 193 209 202 196 210 203 195 208 201 195 207 200 192 208 201 195 207 200 192 206 199 193 207 200 192 209 202 196 211 204 196 212 205 199 212 205 197 206 199 193 207 200 192 208 201 195 208 201 193 207 200 194 207 200 192 208 201 195 209 202 194 208 201 195 209 202 194 209 202 196 208 201 193 206 199 193 206 199 191 206 199 193 207 200 192 204 197 191 205 198 190 205 198 192 204 197 189 203 196 190 203 196 188 206 199 193 208 201 193 209 202 196 207 200 192 205 198 192 203 196 188 201 194 188 201 194 186 201 194 188 201 194 186 201 194 188 202 195 187 205 198 192 207 200 192 209 202 196 208 201 193 207 200 194 205 198 190 200 195 189 201 197 188 203 198 192 204 200 191 205 200 194 204 200 191 203 198 192 202 198 189 204 199 193 203 199 190 201 196 190 199 195 186 199 194 188 200 196 187 201 196 190 203 199 190 211 204 198 206 199 191 202 195 189 201 194 186 200 193 187 201 194 186 205 198 192 209 202 194 206 199 193 204 197 189 202 195 189 201 194 186 201 194 188 202 195 187 204 197 191 205 198 190 210 203 197 208 201 193 207 200 194 208 201 193 209 202 196 209 202 194 207 200 194 205 198 190 209 202 196 211 204 196 213 206 200 212 205 197 208 201 195 205 198 190 204 197 191 204 197 189 206 199 193 206 199 191 205 198 192 204 197 189 203 196 190 203 196 188 203 196 190 203 196 188 206 199 193 205 198 190 204 197 191 203 196 188 202 195 189 202 195 187 201 194 188 200 193 187 204 197 191 204 197 191 204 197 191 204 197 191 204 197 191 204 197 191 204 197 191 204 197 191 207 200 194 209 202 196 212 205 199 
207 202 196 206 201 195 209 204 198 212 207 201 210 205 199 205 200 194 206 201 195 212 207 201 201 196 190 200 195 189 201 196 190 203 198 192 203 198 192 202 197 191 202 197 191 203 198 192 207 200 194 207 200 194 207 200 194 206 199 193 204 197 191 202 195 189 201 194 188 201 194 188 205 198 192 203 196 190 201 194 188 202 195 189 205 198 192 206 199 193 204 197 191 202 195 189 208 201 195 209 202 196 212 205 199 214 207 201 214 207 201 212 205 199 210 203 197 208 201 195 206 199 193 208 201 195 210 203 197 209 202 196 207 200 194 206 199 193 208 201 195 211 204 198 208 201 195 208 201 195 209 202 196 208 201 195 207 200 194 207 200 194 209 202 196 210 203 197 207 200 194 208 201 195 209 202 196 208 201 195 205 198 192 205 198 192 206 199 193 208 201 195 206 199 193 206 199 193 205 198 192 205 198 192 204 197 191 204 197 191 204 197 191 204 197 191 204 197 191 204 197 191 205 198 192 207 200 194 207 200 194 206 199 193 204 197 191 202 195 189 199 194 188 200 195 189 202 197 191 203 198 192 203 198 192 203 198 192 202 197 191 201 196 190 204 199 193 201 196 190 198 193 187 196 191 185 195 190 184 197 192 186 200 195 189 201 196 190 204 197 191 202 195 189 201 194 188 202 195 189 202 195 189 200 193 187 201 194 188 204 197 191 207 200 194 206 199 193 204 197 191 202 195 189 202 195 189 203 196 190 204 197 191 205 198 192 206 199 193 204 197 191 201 194 188 200 193 187 200 193 187 201 194 188 202 195 189 202 195 189 200 193 187 202 195 189 204 197 191 204 197 191 204 197 191 203 196 190 202 195 189 202 195 189 204 197 191 204 197 191 203 196 190 202 195 189 202 195 189 203 196 190 205 198 192 207 200 194 205 198 192 203 196 190 201 194 188 202 195 189 204 197 191 204 197 191 203 196 190 202 195 189 204 197 191 205 198 192 204 197 191 203 196 190 202 195 189 201 194 188 202 195 189 203 196 190 205 198 192 207 200 194 210 203 197 
204 199 193 198 193 187 196 191 185 200 195 189 202 197 191 199 194 188 199 194 188 203 198 192 202 197 191 200 195 189 200 195 189 201 196 190 201 196 190 200 195 189 201 196 190 203 198 192 206 199 193 207 200 194 207 200 194 206 199 193 204 197 191 202 195 189 200 193 187 200 193 187 204 197 191 204 197 191 203 196 190 203 196 190 203 196 190 203 196 190 203 196 190 202 195 189 201 196 190 204 199 193 207 202 196 208 203 197 207 202 196 205 200 194 201 196 190 199 194 188 199 194 188 200 195 189 201 196 190 201 196 190 201 196 190 202 197 191 202 197 191 203 198 192 200 193 187 201 194 188 202 195 189 203 196 190 203 196 190 204 197 191 206 199 193 208 201 195 207 200 194 209 202 196 210 203 197 208 201 195 204 197 191 201 194 188 201 194 188 202 195 189 203 196 190 202 195 189 202 195 189 201 194 188 201 194 188 202 195 189 203 196 190 203 196 190 205 198 192 204 197 191 203 196 190 204 197 191 205 198 192 204 197 191 202 195 189 200 193 187 205 200 194 205 200 194 205 200 194 204 199 193 205 200 194 206 201 195 207 202 196 208 203 197 209 204 198 208 203 197 205 200 194 203 198 192 202 197 191 203 198 192 205 200 194 207 202 196 209 202 196 207 200 194 206 199 193 206 199 193 206 199 193 204 197 191 204 197 191 206 199 193 201 194 188 201 194 188 200 193 187 200 193 187 201 194 188 202 195 189 204 197 191 205 198 192 209 202 196 209 202 196 208 201 195 206 199 193 204 197 191 203 196 190 203 196 190 204 197 191 200 193 187 201 194 188 202 195 189 204 197 191 206 199 193 206 199 193 206 199 193 205 198 192 204 197 191 204 197 191 204 197 191 204 197 191 205 198 192 208 201 195 212 205 199 216 209 203 210 203 197 207 200 194 204 197 191 205 198 192 207 200 194 209 202 196 208 201 195 206 199 193 205 197 194 206 198 195 206 198 195 205 197 194 203 195 192 203 195 192 205 197 194 206 198 195 204 196 193 206 198 195 209 201 198 
211 206 200 199 194 188 193 188 182 199 194 188 204 199 193 204 199 193 202 197 191 203 198 192 205 200 194 203 198 192 201 196 190 202 197 191 202 197 191 201 196 190 203 198 192 205 200 194 201 194 188 203 196 190 205 198 192 205 198 192 204 197 191 202 195 189 200 193 187 200 193 187 198 191 185 200 193 187 201 194 188 199 192 186 196 189 183 195 188 182 196 189 183 197 190 184 195 190 184 197 192 186 199 194 188 202 197 191 204 199 193 206 201 195 208 203 197 209 204 198 199 194 188 197 192 186 197 192 186 199 194 188 202 197 191 204 199 193 203 198 192 202 197 191 204 197 191 205 198 192 204 197 191 203 196 190 201 194 188 201 194 188 202 195 189 203 196 190 206 199 193 208 201 195 210 203 197 207 200 194 202 195 189 197 190 184 196 189 183 196 189 183 200 193 187 199 192 186 197 190 184 195 188 182 195 188 182 196 189 183 198 191 185 199 192 186 203 196 190 202 195 189 202 195 189 203 196 190 206 199 193 207 200 194 206 199 193 204 197 191 201 196 190 199 194 188 197 192 186 195 190 184 195 190 184 198 193 187 201 196 190 203 198 192 204 199 193 203 198 192 202 197 191 200 195 189 200 195 189 200 195 189 201 196 190 201 196 190 208 201 195 203 196 190 199 192 186 197 190 184 196 189 183 195 188 182 198 191 185 201 194 188 193 186 180 193 186 180 194 187 181 195 188 182 197 190 184 199 192 186 201 194 188 202 195 189 205 198 192 208 201 195 210 203 197 210 203 197 206 199 193 202 195 189 199 192 186 198 191 185 208 201 195 206 199 193 204 197 191 204 197 191 204 197 191 203 196 190 201 194 188 198 191 185 203 196 190 202 195 189 201 194 188 199 192 186 198 191 185 200 193 187 204 197 191 208 201 195 203 196 190 199 192 186 196 189 183 196 189 183 198 191 185 199 192 186 197 190 184 194 187 181 195 188 182 196 188 185 197 189 186 196 188 185 196 188 185 196 188 185 198 190 187 201 193 190 209 201 198 210 202 199 212 204 201 
200 197 190 204 201 194 210 205 199 212 207 201 212 207 201 210 205 199 210 205 199 210 205 199 212 207 201 207 202 196 208 201 195 214 207 201 215 208 202 206 199 193 196 189 183 193 186 180 196 192 183 190 186 177 188 184 175 191 187 178 190 186 177 186 182 173 186 182 173 191 187 178 193 189 180 200 196 187 195 191 182 189 185 176 190 186 177 183 179 170 180 176 167 191 187 178 182 178 169 186 182 173 188 184 175 190 186 177 198 194 185 208 204 195 210 206 197 205 201 192 204 200 191 207 203 194 212 208 199 215 211 202 212 208 199 207 203 194 208 204 195 214 210 201 204 199 193 208 203 197 210 205 199 207 202 196 201 196 190 198 193 187 197 192 186 197 192 186 192 187 181 194 189 183 196 191 185 195 190 184 191 186 180 189 184 178 190 185 179 192 187 181 194 190 181 192 188 179 188 184 175 184 180 171 183 179 170 184 180 171 185 181 172 184 180 171 187 183 174 194 190 181 198 194 185 204 200 191 210 206 197 206 202 193 202 198 189 205 201 192 206 202 193 204 200 191 200 196 187 196 192 183 192 188 179 190 186 177 190 186 177 191 187 178 194 190 181 192 188 179 183 179 170 172 168 159 173 169 160 183 179 170 187 183 174 183 179 170 186 182 173 181 177 168 184 180 171 186 182 173 183 179 170 192 188 179 199 195 186 190 186 177 190 186 177 184 180 171 181 177 168 184 180 171 184 180 171 183 179 170 187 183 174 193 188 182 184 179 173 200 195 191 212 207 203 210 205 201 201 196 192 199 194 190 207 202 198 216 211 207 211 206 202 212 207 203 211 206 202 210 205 201 208 203 199 208 203 199 210 205 201 213 208 202 218 213 207 202 198 189 189 185 176 188 184 175 189 185 176 185 181 172 184 180 171 187 183 174 186 182 173 183 179 170 183 179 170 188 184 175 193 189 180 194 190 181 192 188 179 190 186 177 184 180 171 185 180 174 185 180 174 185 180 174 185 180 174 186 181 175 188 183 177 189 184 178 187 182 176 200 195 189 216 211 205 
155 152 145 152 149 142 150 145 139 152 147 141 157 152 146 159 154 148 156 151 145 152 147 141 152 147 141 151 146 140 157 150 144 163 156 150 161 154 148 156 149 143 156 149 143 162 155 149 159 155 146 156 152 143 154 150 141 154 150 141 153 149 140 151 147 138 152 148 139 154 150 141 156 152 143 159 155 146 153 149 140 151 147 138 155 151 142 151 147 138 147 143 134 154 150 141 153 149 140 155 151 142 154 150 141 151 147 138 154 150 141 160 156 147 159 155 146 153 149 140 156 152 143 150 146 137 148 144 135 154 150 141 159 155 146 158 154 145 154 150 141 150 146 137 155 150 144 158 153 147 160 155 149 159 154 148 157 152 146 157 152 146 159 154 148 160 155 149 153 148 142 153 148 142 154 149 143 153 148 142 151 146 140 150 145 139 150 145 139 151 146 140 158 154 145 155 151 142 153 149 140 152 148 139 152 148 139 152 148 139 152 148 139 154 150 141 153 149 140 155 151 142 156 152 143 160 156 147 164 160 151 161 157 148 156 152 143 157 153 144 152 148 139 153 149 140 155 151 142 155 151 142 154 150 141 153 149 140 154 150 141 155 151 142 163 159 150 162 158 149 156 152 143 151 147 138 152 148 139 157 153 144 157 153 144 153 149 140 154 150 141 150 146 137 154 150 141 155 151 142 150 146 137 157 153 144 162 158 149 155 151 142 152 148 139 151 147 138 152 148 139 154 150 141 155 151 142 153 149 140 154 150 141 155 150 144 150 145 141 155 150 146 159 154 150 159 154 150 158 153 149 157 152 148 154 149 145 151 146 142 158 153 149 158 153 149 157 152 148 155 150 146 153 148 144 154 149 145 156 151 147 159 154 150 159 154 148 152 148 139 150 146 137 156 152 143 161 157 148 159 155 146 155 151 142 155 151 142 150 146 137 150 146 137 150 146 137 152 148 139 154 150 141 156 152 143 154 150 141 151 147 138 153 149 140 152 148 139 152 147 141 152 147 141 153 148 142 154 149 143 155 150 144 156 151 145 142 137 131 147 142 136 154 149 143 
160 157 150 156 153 146 153 150 143 154 151 144 158 155 148 162 159 152 163 160 153 162 159 152 157 152 146 154 149 143 153 148 142 156 151 145 156 151 145 153 148 142 155 150 144 160 155 149 160 155 149 160 155 149 158 153 147 155 150 144 154 149 143 156 151 145 157 152 146 156 151 145 157 152 146 156 151 145 151 146 140 152 147 141 159 154 148 158 153 147 154 149 143 156 151 145 161 156 150 162 157 151 160 155 149 157 152 146 159 154 148 163 158 152 162 157 151 157 152 146 164 159 153 156 151 145 152 147 141 156 151 145 163 158 152 163 158 152 158 153 147 153 148 142 154 149 143 154 149 143 155 150 144 156 151 145 158 153 147 160 155 149 163 158 152 165 160 154 161 156 150 159 154 148 157 152 146 157 152 146 158 153 147 159 154 148 158 153 147 157 152 146 157 152 146 154 149 143 153 148 142 157 152 146 157 152 146 154 149 143 155 150 144 159 154 148 163 158 152 159 154 148 157 152 146 160 155 149 161 156 150 159 154 148 155 150 144 154 149 143 157 152 146 162 157 151 166 161 155 166 161 155 162 157 151 158 153 147 155 150 144 155 150 144 153 148 142 153 148 142 154 149 143 157 152 146 161 156 150 162 157 151 160 155 149 158 153 147 156 151 145 155 150 144 158 153 147 158 153 147 153 148 142 156 151 145 159 154 148 154 149 143 153 148 142 156 151 145 157 152 146 156 151 145 157 152 146 158 153 147 158 153 147 156 151 145 163 158 154 162 157 153 160 155 151 158 153 149 159 154 150 159 154 150 154 149 145 149 144 140 161 156 152 161 156 152 159 154 150 157 152 148 156 151 147 156 151 147 158 153 149 160 155 151 151 146 140 152 147 141 155 150 144 160 155 149 163 158 152 161 156 150 156 151 145 152 147 141 154 149 143 157 152 146 157 152 146 154 149 143 154 149 143 156 151 145 155 150 144 151 146 140 158 153 147 156 151 145 154 149 143 155 150 144 157 152 146 159 154 148 159 154 148 158 153 147 159 154 148 154 149 143 148 143 137 
205 202 195 206 203 196 203 200 193 195 192 185 184 181 174 178 175 168 178 175 168 182 179 172 189 186 179 181 176 170 177 172 166 185 180 174 198 193 187 204 199 193 205 200 194 204 199 193 210 205 199 213 208 202 211 206 202 205 200 194 204 199 195 209 204 198 211 206 202 208 203 197 208 203 199 205 200 194 202 197 193 206 201 195 211 206 202 211 206 200 208 203 199 208 203 197 206 201 197 207 202 196 206 201 197 204 199 193 206 201 197 210 205 199 210 205 201 207 202 196 200 195 191 201 196 190 201 196 192 200 195 189 198 193 189 197 192 186 198 193 189 200 195 189 203 198 192 201 196 190 201 196 190 204 199 193 207 202 196 208 203 197 208 203 197 209 204 198 211 206 200 207 202 196 204 199 193 204 199 193 207 202 196 209 204 198 208 203 197 206 201 195 207 202 196 204 199 193 205 200 194 210 205 199 210 205 199 206 201 195 206 201 195 211 206 200 210 205 199 206 201 195 206 201 195 207 202 196 204 199 193 202 197 191 203 198 192 203 198 192 202 197 191 207 202 196 210 205 199 208 203 197 202 197 191 194 189 183 190 185 179 188 183 177 203 198 192 201 196 190 203 198 192 209 204 198 212 207 201 211 206 200 209 204 198 210 205 199 204 199 193 206 201 195 209 204 198 209 204 198 206 201 195 205 200 194 205 200 194 204 199 193 208 203 197 210 205 199 208 203 197 203 198 192 204 199 193 209 204 198 212 207 201 209 204 198 202 197 193 205 200 196 203 198 194 197 192 188 192 187 183 194 189 185 199 194 190 203 198 194 204 199 195 204 199 195 203 198 194 202 197 193 201 196 192 201 196 192 201 196 192 201 196 192 209 204 198 211 206 200 211 206 200 209 204 198 208 203 197 209 204 198 208 203 197 204 199 193 206 201 195 212 207 201 213 208 202 207 202 196 205 200 194 207 202 196 207 202 196 203 198 192 211 206 200 208 203 197 205 200 194 205 200 194 208 203 197 210 205 199 210 205 199 208 203 197 208 203 197 200 195 189 192 187 181 
183 182 177 190 189 184 195 194 189 194 193 188 190 189 184 188 187 182 194 193 188 199 198 193 192 191 186 186 183 178 183 180 175 190 187 182 201 198 193 207 204 199 206 203 198 203 200 195 197 194 189 200 197 192 197 193 190 192 189 184 192 188 185 198 195 190 200 196 193 198 195 190 198 194 191 195 192 187 196 192 189 199 196 191 198 194 191 197 194 189 197 193 190 196 193 188 196 192 189 196 193 188 195 191 188 193 190 185 194 190 187 196 193 188 196 192 189 195 192 187 196 192 189 201 198 193 203 199 196 199 196 191 193 189 186 191 188 183 195 191 188 199 196 191 198 195 190 195 192 187 195 192 187 199 196 191 202 199 194 200 197 192 198 195 190 198 195 190 200 197 192 197 194 189 194 191 186 194 191 186 196 193 188 198 195 190 198 195 190 197 194 189 198 195 190 197 194 189 199 196 191 202 199 194 200 197 192 195 192 187 195 192 187 199 196 191 198 195 190 195 192 187 201 198 193 204 201 196 195 192 187 194 191 186 200 197 192 201 198 193 204 201 196 208 205 200 211 208 203 211 208 203 207 204 199 203 200 195 201 198 193 201 198 193 210 207 202 206 203 198 203 200 195 203 200 195 202 199 194 199 196 191 197 194 189 199 196 191 192 189 184 196 193 188 199 196 191 200 197 192 200 197 192 197 194 189 195 192 187 197 194 189 199 196 191 201 198 193 199 196 191 193 190 185 193 190 185 198 195 190 201 198 193 198 195 190 204 201 196 209 206 201 210 207 202 204 201 196 199 196 191 201 198 193 209 206 201 215 212 207 205 202 197 206 203 198 208 205 200 209 206 201 208 205 200 207 204 199 204 201 196 202 199 194 200 197 192 201 198 193 199 196 191 196 193 188 197 194 189 202 199 194 205 202 197 205 202 197 195 192 187 201 198 193 202 199 194 198 195 190 195 192 187 197 194 189 198 195 190 197 194 189 202 199 192 198 195 188 195 192 185 195 192 185 197 194 187 199 196 189 198 195 188 197 194 187 197 194 187 195 192 185 193 190 183 
188 189 183 187 188 182 187 186 181 184 183 178 181 180 175 179 178 173 178 177 172 178 177 172 183 182 177 183 182 177 185 182 177 183 180 175 182 179 174 181 178 173 180 177 172 181 178 173 185 181 178 186 182 179 184 180 177 181 177 174 182 178 175 187 183 180 190 186 183 190 186 183 190 186 183 187 183 180 191 187 184 193 189 186 187 183 180 184 180 177 186 182 179 184 180 177 187 183 180 187 183 180 186 182 179 186 182 179 187 183 180 190 186 183 192 188 185 193 189 186 188 184 181 189 185 182 188 184 181 185 181 178 184 180 177 185 181 178 185 181 178 183 179 176 191 187 184 187 184 179 188 185 180 194 191 186 196 193 188 193 190 185 191 188 183 191 188 183 191 188 183 191 188 183 191 188 183 190 187 182 190 187 182 191 188 183 193 190 185 194 191 186 188 185 180 190 187 182 191 188 183 190 187 182 187 184 179 184 181 176 183 180 175 183 180 175 187 184 179 186 183 178 198 195 190 202 199 194 189 186 181 188 185 180 196 193 188 196 193 188 190 187 182 192 189 184 195 192 187 196 193 188 196 193 188 196 193 188 196 193 188 196 193 188 199 196 191 196 193 188 192 189 184 188 185 180 186 183 178 185 182 177 185 182 177 186 183 178 181 178 173 186 183 178 187 184 179 189 186 181 194 191 186 190 187 182 187 184 179 192 189 184 187 184 179 188 185 180 187 184 179 185 182 177 184 181 176 185 182 177 185 182 177 183 180 175 190 187 182 194 191 186 195 192 187 195 192 187 195 192 187 196 193 188 195 192 187 193 190 185 189 186 181 190 187 182 192 189 184 194 191 186 194 191 186 193 190 185 190 187 182 187 184 179 186 183 178 185 182 177 184 181 176 185 182 177 187 184 179 191 188 183 194 191 186 196 193 188 187 184 179 189 186 181 190 187 182 190 187 182 189 186 181 189 186 181 190 187 182 192 189 184 189 186 181 186 183 176 183 180 173 182 179 172 183 180 173 185 182 175 185 182 175 184 181 174 194 191 184 198 195 188 202 199 192 
177 179 174 176 178 173 174 175 170 172 173 168 171 172 167 174 175 170 180 181 176 185 186 181 174 175 170 177 178 173 180 179 175 180 179 175 179 178 174 180 179 175 182 181 177 184 183 179 187 183 182 184 180 179 182 178 177 183 179 178 185 181 180 187 183 182 191 187 186 195 191 190 195 191 190 189 185 184 194 190 189 197 193 192 188 184 183 185 181 180 187 183 182 182 178 177 179 175 174 179 175 174 180 176 175 182 178 177 185 181 180 188 184 183 192 188 187 196 192 191 193 189 188 193 189 188 192 188 187 189 185 184 190 186 185 192 188 187 190 186 185 186 182 179 186 182 179 182 178 175 183 179 176 188 184 181 190 186 183 186 182 179 185 181 178 188 184 181 185 181 178 189 185 182 192 188 185 191 187 184 188 184 181 187 183 180 190 186 183 194 190 187 188 184 181 194 190 187 195 191 188 189 185 182 184 180 177 184 180 177 184 180 177 180 176 173 182 178 175 179 175 172 194 190 187 200 196 193 186 182 179 183 179 176 189 185 182 184 180 177 190 186 183 190 186 183 191 187 184 193 189 186 195 191 188 195 191 188 193 189 186 192 188 185 187 183 180 190 186 183 188 184 181 183 179 176 181 177 174 185 181 178 185 181 178 183 179 176 183 179 176 187 183 180 185 181 178 189 185 182 197 193 190 193 189 186 188 184 181 195 191 188 191 187 184 188 184 181 186 182 179 186 182 179 184 180 177 182 178 175 183 179 176 184 180 177 187 184 179 191 188 183 194 191 186 194 191 186 195 192 187 194 191 186 190 187 182 185 182 177 187 184 179 186 183 178 187 184 179 188 185 180 190 187 182 190 187 182 188 185 180 186 183 178 191 187 184 185 181 178 183 179 176 187 183 180 189 185 182 188 184 181 189 185 182 192 188 185 192 188 185 188 184 181 189 185 182 194 190 187 194 190 187 191 187 184 192 188 185 197 194 189 188 185 180 186 183 178 183 180 175 182 179 174 181 178 173 182 179 174 183 180 175 184 181 176 186 183 178 190 187 182 195 192 185 
